<svg width="404" height="24" viewBox="0 0 404 24" fill="none" xmlns="http://www.w3.org/2000/svg">
<path fill-rule="evenodd" clip-rule="evenodd" d="M12 24C18.6274 24 24 18.6274 24 12C24 5.37258 18.6274 0 12 0C5.37258 0 0 5.37258 0 12C0 18.6274 5.37258 24 12 24ZM243 11H351V13H243V11ZM53 12H161V14H53V12ZM202 22C207.523 22 212 17.5228 212 12C212 6.47715 207.523 2 202 2C196.477 2 192 6.47715 192 12C192 17.5228 196.477 22 202 22ZM202 24C208.627 24 214 18.6274 214 12C214 5.37258 208.627 0 202 0C195.373 0 190 5.37258 190 12C190 18.6274 195.373 24 202 24ZM402 12C402 17.5228 397.523 22 392 22C386.477 22 382 17.5228 382 12C382 6.47715 386.477 2 392 2C397.523 2 402 6.47715 402 12ZM404 12C404 18.6274 398.627 24 392 24C385.373 24 380 18.6274 380 12C380 5.37258 385.373 0 392 0C398.627 0 404 5.37258 404 12Z" fill="#00C994"/>
</svg>
