<svg width="404" height="24" viewBox="0 0 404 24" fill="none" xmlns="http://www.w3.org/2000/svg">
<path fill-rule="evenodd" clip-rule="evenodd" d="M22 12C22 17.5228 17.5228 22 12 22C6.47715 22 2 17.5228 2 12C2 6.47715 6.47715 2 12 2C17.5228 2 22 6.47715 22 12ZM24 12C24 18.6274 18.6274 24 12 24C5.37258 24 0 18.6274 0 12C0 5.37258 5.37258 0 12 0C18.6274 0 24 5.37258 24 12ZM243 11H351V13H243V11ZM53 12H161V14H53V12ZM214 12C214 18.6274 208.627 24 202 24C195.373 24 190 18.6274 190 12C190 5.37258 195.373 0 202 0C208.627 0 214 5.37258 214 12ZM402 12C402 17.5228 397.523 22 392 22C386.477 22 382 17.5228 382 12C382 6.47715 386.477 2 392 2C397.523 2 402 6.47715 402 12ZM404 12C404 18.6274 398.627 24 392 24C385.373 24 380 18.6274 380 12C380 5.37258 385.373 0 392 0C398.627 0 404 5.37258 404 12Z" fill="#00C994"/>
</svg>
